# xmcd CD database file
#
# Track frame offsets:
#	150
#	16080
#	39730
#	58152
#	77287
#	108575
#	130300
#	147927
#	166625
#	190065
#
# Disc length: 2814 seconds
#
# Revision: 0
# Processed by: cddbd v1.5.1PL2 Copyright (c) Steve Scherf et al.
# Submitted via: CDex 1.51
#
DISCID=7a0afc0a
DTITLE=Various Artist - 別天地
DYEAR=1986
DGENRE=JPop
TTITLE0=バナナ(Uplm) - Cell
TTITLE1=重藤功(Date Of Birth) - Aroud Aroud
TTITLE2=小西康陽(Young Odeon) - 新パゾリーニ
TTITLE3=和久井光司(Screen) - 博愛の君
TTITLE4=板倉文(Killing Time) - Ebrio
TTITLE5=板倉文(Killing Time) - ルナチコ
TTITLE6=バナナ(Uplm) - Heaven Line
TTITLE7=小西康陽(Young Odeon) - 黒い十人の女
TTITLE8=重藤功(Date Of Birth) - King Of Waltz
TTITLE9=和久井光司(Screen) - Ballerina
EXTD=YEAR: 1986
EXTT0=
EXTT1=
EXTT2=
EXTT3=
EXTT4=
EXTT5=
EXTT6=
EXTT7=
EXTT8=
EXTT9=
PLAYORDER=
